PathFileType	4	(X/Y/Z)	./resultDataOpenSim/trcMotMarkerGrf/sub10/qtm-05-01.trc
DataRate	CameraRate	NumFrames	NumMarkers	Units	OrigDataRate	OrigDataStartFrame	OrigNumFrames
250.000000	250.000000	13	24	m	250.000000	435	496
Frame#	Time	L.Toe.Tip			R.Toe.Tip			L.Ankle.Lat			R.Ankle.Lat			L.Ankle.Med			R.Ankle.Med			L.Heel			R.Heel			L.Knee.Lat			R.Knee.Lat			L.Knee.Med			R.Knee.Med			L.Thigh.Upper			R.Thigh.Upper			L.ASIS			R.ASIS			V.Sacral			L.Acromium			R.Acromium			C7			L.Elbow			R.Elbow			L.Wrist.Lat			R.Wrist.Lat
		X1	Y1	Z1	X2	Y2	Z2	X3	Y3	Z3	X4	Y4	Z4	X5	Y5	Z5	X6	Y6	Z6	X7	Y7	Z7	X8	Y8	Z8	X9	Y9	Z9	X10	Y10	Z10	X11	Y11	Z11	X12	Y12	Z12	X13	Y13	Z13	X14	Y14	Z14	X15	Y15	Z15	X16	Y16	Z16	X17	Y17	Z17	X18	Y18	Z18	X19	Y19	Z19	X20	Y20	Z20	X21	Y21	Z21	X22	Y22	Z22	X23	Y23	Z23	X24	Y24	Z24

435	1.736	1.651306	0.094368356	-0.14734834	0.95134865	0.038023671	0.035154345	1.5159268	0.080681586	-0.18020885	0.81518293	0.079250674	0.061253398	1.5172595	0.10193816	-0.098591141	0.84633728	0.098813813	-0.021909579	1.4643106	0.030991289	-0.13874201	0.7620156	0.066339316	0.012282308	1.3923536	0.45404409	-0.18747669	1.0105459	0.43316505	0.10119096	1.4143058	0.42775672	-0.066859628	1.0436539	0.42838278	-0.023809119	1.2430186	0.80584622	-0.22133492	1.1058283	0.83439063	0.14721674	1.2747468	0.91743801	-0.13672986	1.2043048	0.91663313	0.10580552	1.0482865	0.91550167	-0.07897697	1.1683511	1.3884164	-0.18531131	1.1507191	1.3812741	0.13288441	1.076245	1.4075067	-0.034584837	0.95539052	1.117874	-0.26015979	1.2250839	1.03804	0.21720918	1.0243641	0.88495729	-0.37823498	1.4747858	1.0172904	0.21270628
436	1.74	1.6562377	0.093254486	-0.14673136	0.951517	0.038048724	0.035187898	1.5212716	0.079511511	-0.18041008	0.81586757	0.080770423	0.061347762	1.5220437	0.10048025	-0.098757029	0.84726878	0.099952971	-0.021827108	1.4693811	0.029479522	-0.13953238	0.76264046	0.068417932	0.012393625	1.3987609	0.45333585	-0.1876455	1.0145432	0.43285388	0.10074458	1.4200584	0.42689457	-0.066867739	1.0481002	0.42765946	-0.024137749	1.249855	0.80468048	-0.22178099	1.1108346	0.83361644	0.14625527	1.2812665	0.91618313	-0.13664523	1.2100341	0.91555855	0.10548532	1.0545303	0.91476034	-0.080353147	1.1736431	1.3875034	-0.18619571	1.1559231	1.3805018	0.13202048	1.0815202	1.4064907	-0.035552235	0.96345185	1.1164787	-0.26219182	1.230515	1.0372917	0.21601106	1.0289526	0.88422813	-0.37906369	1.4800351	1.0161713	0.21122233
437	1.744	1.6605946	0.09185575	-0.14599277	0.95169862	0.03807955	0.035222553	1.5260951	0.07812578	-0.18055998	0.81653552	0.082395789	0.061487212	1.5263098	0.098867403	-0.098889312	0.84826384	0.10114902	-0.021727015	1.4737651	0.028100165	-0.14023779	0.76332824	0.070596067	0.01251927	1.4053129	0.45264422	-0.18782164	1.0186537	0.43253733	0.10028511	1.4258685	0.42602099	-0.066875236	1.0526217	0.42692125	-0.024498824	1.2566992	0.80359476	-0.22228177	1.1159336	0.83287187	0.14530151	1.2878262	0.91490575	-0.13659188	1.2158864	0.91450174	0.10511343	1.0609573	0.91407631	-0.081706339	1.1789294	1.3866273	-0.1871151	1.1611377	1.3797757	0.13114656	1.0868417	1.4055002	-0.036528793	0.97234294	1.1149179	-0.26456564	1.2358304	1.036522	0.21478389	1.033701	0.88348389	-0.37984966	1.4851829	1.0149967	0.20976261
438	1.748	1.6644467	0.090107928	-0.14510737	0.95189537	0.038114009	0.035258411	1.5304129	0.07650448	-0.18067277	0.81725577	0.084135264	0.061659868	1.5300818	0.097103516	-0.099002812	0.84932701	0.10240028	-0.021611863	1.4774004	0.027035008	-0.14087798	0.76409033	0.072870979	0.012651699	1.411941	0.45195144	-0.18798967	1.0228501	0.43221422	0.099810804	1.431643	0.42512282	-0.066905755	1.0572262	0.42616466	-0.024879737	1.263545	0.80261943	-0.22283932	1.1210975	0.83214266	0.1443473	1.2944228	0.91361656	-0.13657968	1.2218271	0.91347128	0.10471976	1.0674909	0.91345462	-0.083050882	1.184207	1.3857875	-0.18806971	1.1663817	1.3790879	0.13025095	1.0921987	1.404531	-0.037518373	0.9789373	1.1138032	-0.26590088	1.2409721	1.0356923	0.21350892	1.0386076	0.88272019	-0.38058688	1.4902243	1.0137654	0.20832847
439	1.752	1.6678524	0.087827865	-0.14410361	0.95210773	0.038146505	0.035295928	1.5342365	0.074659002	-0.18075614	0.81813046	0.085963086	0.06183861	1.5334113	0.095200066	-0.099096226	0.8504613	0.10370587	-0.02148389	1.4802545	0.026351474	-0.141473	0.76493876	0.075240474	0.012775421	1.418584	0.45123722	-0.18812612	1.0271368	0.43187824	0.099329462	1.437131	0.42417913	-0.067036593	1.0619265	0.42538701	-0.025271951	1.2703838	0.80177243	-0.2234464	1.1263124	0.83141437	0.1433825	1.3010534	0.91232899	-0.13661182	1.2278052	0.91248223	0.10433287	1.0740958	0.91288836	-0.084387381	1.1894833	1.3849826	-0.18905328	1.1716824	1.3784173	0.12931678	1.097577	1.4035751	-0.038530532	0.9817892	1.1134192	-0.26555725	1.2459533	1.0348005	0.21218895	1.0436668	0.88193842	-0.3812773	1.4951606	1.0124739	0.20692333
440	1.756	1.6708674	0.084757497	-0.14304161	0.95233109	0.038168912	0.035335986	1.5375838	0.072686399	-0.18081757	0.81920487	0.087840158	0.062003548	1.5363866	0.093203048	-0.099148185	0.85167257	0.10506911	-0.021343932	1.4823589	0.025990638	-0.14200175	0.76587698	0.077707945	0.012885878	1.4252287	0.45049471	-0.18821553	1.0315521	0.43151162	0.098841517	1.4420095	0.42317237	-0.067367701	1.0667349	0.4245854	-0.025673682	1.277202	0.80105911	-0.2240854	1.1316506	0.83066286	0.14241271	1.3077094	0.91105652	-0.13668618	1.2337525	0.91154706	0.10399109	1.0807547	0.91237223	-0.085710116	1.1947712	1.3842076	-0.19006138	1.177047	1.3777448	0.12834025	1.1029717	1.4026291	-0.039568225	0.9827938	1.1133979	-0.26436892	1.250821	1.0338659	0.21083946	1.0488728	0.88113937	-0.38192959	1.5	1.0111181	0.20554819
441	1.76	1.6735708	0.080610261	-0.14201184	0.95256058	0.038175091	0.035380412	1.5404975	0.070785481	-0.18086802	0.82042376	0.089751092	0.062153734	1.539161	0.091232819	-0.099130318	0.85297089	0.10649484	-0.02119259	1.4838119	0.025930396	-0.14240271	0.76689896	0.080282198	0.013006719	1.431888	0.44974015	-0.18825155	1.0361241	0.43110183	0.098334334	1.4462407	0.42209377	-0.067907837	1.0716629	0.42375462	-0.026088494	1.2839897	0.80048015	-0.22473967	1.1373325	0.82981855	0.14147925	1.3143663	0.90981377	-0.13679463	1.2396085	0.91066388	0.10373534	1.08746	0.91191028	-0.087020228	1.2000818	1.3834567	-0.19108969	1.1824552	1.3770731	0.12733224	1.1083839	1.4017004	-0.040626392	0.98478804	1.1131831	-0.26358499	1.2556024	1.0329092	0.20947178	1.0542239	0.88031869	-0.38255153	1.5047504	1.0096966	0.20420293
442	1.764	1.6760621	0.075214441	-0.14111921	0.95280257	0.038168584	0.035428876	1.543056	0.069176986	-0.18091745	0.82168308	0.091718393	0.062307437	1.5419909	0.089488407	-0.099025728	0.85436785	0.1079834	-0.021030009	1.4847922	0.026260664	-0.14263411	0.76799776	0.082974379	0.013179653	1.4385738	0.44901357	-0.1882336	1.040854	0.43065518	0.097800811	1.4502936	0.4209575	-0.068511236	1.076719	0.42288908	-0.026523464	1.2907436	0.80003734	-0.22540174	1.1436571	0.82877249	0.14064338	1.3209838	0.90862039	-0.1369289	1.2454004	0.90980921	0.1035472	1.0941986	0.91151316	-0.088315818	1.2054163	1.3827261	-0.1921375	1.1878768	1.3764301	0.12631011	1.1138085	1.400801	-0.041702221	0.98873847	1.1125795	-0.26362902	1.260303	1.031943	0.20809021	1.0597223	0.87947087	-0.38314742	1.5094122	1.0082082	0.20288933
443	1.768	1.6784085	0.068811345	-0.14041326	0.95307674	0.038164242	0.035476391	1.5453709	0.067977131	-0.18096544	0.82293938	0.093777531	0.062488832	1.5451604	0.088173715	-0.098834993	0.85587291	0.10953268	-0.020851419	1.4855473	0.027025845	-0.14273142	0.76918069	0.08579493	0.013430382	1.445298	0.44837167	-0.18817034	1.0457449	0.4301812	0.09724469	1.4547366	0.4198187	-0.069012905	1.0819029	0.42198938	-0.026985015	1.2974614	0.7997348	-0.22606873	1.1506903	0.82749973	0.13991603	1.3275247	0.90750243	-0.13709431	1.2512772	0.90894537	0.1033138	1.1009274	0.9111913	-0.089555846	1.2107626	1.3820171	-0.19321563	1.1932985	1.3758461	0.12528849	1.1192322	1.3999399	-0.042799627	0.9939318	1.1117196	-0.26418515	1.2649285	1.030972	0.20669522	1.0653681	0.87859295	-0.38372009	1.5139827	1.0066473	0.20161078
444	1.772	1.68063	0.062191589	-0.13982631	0.95340063	0.038174665	0.035517407	1.547572	0.067144158	-0.18098893	0.82426227	0.095946907	0.062708699	1.5487147	0.087357374	-0.098560709	0.8574917	0.11114579	-0.020644926	1.4863168	0.028093955	-0.14278903	0.77047225	0.088751383	0.013749864	1.452076	0.44787373	-0.18808058	1.0508264	0.42967189	0.096666183	1.4597197	0.41876883	-0.069385543	1.0872061	0.42106501	-0.027475716	1.3041426	0.79957737	-0.22673491	1.1579932	0.82616147	0.13921659	1.3339764	0.90648888	-0.1373151	1.2573822	0.9080458	0.10291875	1.1075793	0.91094589	-0.090670173	1.2161061	1.3813372	-0.19433527	1.1987395	1.3753345	0.12427211	1.124642	1.3991218	-0.043919876	0.99949489	1.11077	-0.26486987	1.2694871	1.0299999	0.20528406	1.0711537	0.87768334	-0.38427028	1.5184648	1.0050079	0.20037137
445	1.776	1.682797	0.056371121	-0.13920415	0.95377456	0.038196104	0.035550849	1.5497894	0.066543739	-0.18093581	0.82576737	0.098223672	0.062959745	1.5522966	0.086898872	-0.098182311	0.85922568	0.11283328	-0.020399103	1.4872607	0.029260733	-0.14288266	0.77189683	0.091848092	0.014111428	1.4589101	0.44756763	-0.18798277	1.0561531	0.42910664	0.096061861	1.4650532	0.41790541	-0.069692335	1.0926232	0.42012931	-0.027992937	1.31079	0.79956841	-0.22739447	1.1649598	0.82497167	0.13844834	1.3403507	0.90560393	-0.13762079	1.2637274	0.9071144	0.10234352	1.1141305	0.91076567	-0.091637632	1.2214435	1.3806953	-0.19549203	1.2042304	1.3748918	0.12325991	1.1300359	1.3983526	-0.045056309	1.0050599	1.1098019	-0.26552401	1.2739779	1.0290365	0.20385054	1.0770733	0.87674251	-0.38479369	1.522865	1.0032903	0.19917387
446	1.78	1.6850983	0.052028479	-0.13845543	0.95418372	0.038212761	0.035579708	1.5521276	0.066069204	-0.18074	0.82750723	0.10059866	0.063233315	1.5554555	0.086574432	-0.097656099	0.86107175	0.11460746	-0.020116368	1.488437	0.030419098	-0.1430093	0.77347135	0.095086281	0.014487375	1.4657724	0.44748443	-0.18787783	1.0617634	0.42848533	0.095433778	1.4705445	0.4173024	-0.069956342	1.0981657	0.41919373	-0.028528771	1.3174077	0.79971007	-0.2280524	1.171473	0.82398155	0.13758832	1.3466629	0.90486327	-0.13802614	1.2702344	0.9061761	0.10163709	1.1206286	0.910634	-0.092510515	1.2267786	1.3800989	-0.19667243	1.2097805	1.3745091	0.12225442	1.1354248	1.3976439	-0.046203921	1.0106403	1.1088172	-0.26615483	1.2783906	1.028095	0.20238677	1.0831305	0.87577713	-0.3852824	1.527183	1.0014983	0.1980162
447	1.784	1.6876749	0.049181179	-0.1377125	0.95461084	0.038211349	0.035609146	1.5546002	0.065715156	-0.1803582	0.82944074	0.10306516	0.063536696	1.5580597	0.086253594	-0.096955852	0.86302746	0.11647596	-0.019817446	1.489793	0.031564484	-0.14308814	0.7752175	0.098461686	0.014837322	1.4726269	0.44763806	-0.18774228	1.067617	0.4278561	0.094779253	1.4761236	0.4170103	-0.07012394	1.1038594	0.4182672	-0.029076074	1.3239996	0.80000611	-0.2287265	1.177897	0.82308366	0.13668219	1.3529153	0.90428427	-0.13852766	1.2768261	0.90525341	0.10084133	1.1271255	0.91053516	-0.093348389	1.2321098	1.3795551	-0.19786864	1.2153866	1.3741847	0.12126049	1.1408284	1.397014	-0.04736573	1.0163273	1.1078082	-0.26680103	1.282718	1.0271886	0.20088893	1.089332	0.87479925	-0.38573106	1.5314091	0.99963183	0.19689089
